<?xml version="1.0" encoding="UTF-8" standalone="no"?>
<!-- Generator: Adobe Illustrator 16.0.0, SVG Export Plug-In . SVG Version: 6.00 Build 0)  -->

<svg
   version="1.1"
   id="Capa_1"
   x="0px"
   y="0px"
   width="71"
   height="71"
   viewBox="0 0 70.999998 70.999998"
   xml:space="preserve"
   sodipodi:docname="lampada.svg"
   inkscape:version="1.1 (c68e22c387, 2021-05-23)"
   inkscape:export-filename="C:\Users\rodri\OneDrive\Documentos\Programming\Multiplication Table\Css\lampada.png"
   inkscape:export-xdpi="96"
   inkscape:export-ydpi="96"
   xmlns:inkscape="http://www.inkscape.org/namespaces/inkscape"
   xmlns:sodipodi="http://sodipodi.sourceforge.net/DTD/sodipodi-0.dtd"
   xmlns="http://www.w3.org/2000/svg"
   xmlns:svg="http://www.w3.org/2000/svg"><defs
   id="defs39" /><sodipodi:namedview
   id="namedview37"
   pagecolor="#505050"
   bordercolor="#eeeeee"
   borderopacity="1"
   inkscape:pageshadow="0"
   inkscape:pageopacity="0"
   inkscape:pagecheckerboard="0"
   showgrid="false"
   inkscape:zoom="4.9975472"
   inkscape:cx="66.532639"
   inkscape:cy="48.523804"
   inkscape:window-width="1920"
   inkscape:window-height="1001"
   inkscape:window-x="-9"
   inkscape:window-y="-9"
   inkscape:window-maximized="1"
   inkscape:current-layer="g4"
   width="63px" />
<g
   id="g4">
	<g
   id="g4436"
   transform="translate(-200.1165,-175.44855)"><circle
     style="fill:#f1623f;fill-opacity:1;stroke-width:1.08951"
     id="path4292"
     cx="235.74408"
     cy="210.87502"
     r="34.445324" /><path
     d="m 235.74408,185.04893 c -9.16793,0 -16.62657,7.08616 -16.62657,15.79631 0,6.07246 2.3522,9.52051 4.6282,12.85662 1.89745,2.7802 3.85952,5.65492 3.9781,9.54367 0.0292,0.95974 0.71404,1.74796 1.61669,1.94319 -0.84015,0.2575 -1.45124,1.03898 -1.45124,1.96354 0,0.81452 0.47543,1.51609 1.16294,1.848 -0.6874,0.33201 -1.16294,1.03358 -1.16294,1.84822 0,1.13417 0.91938,2.05356 2.05356,2.05356 h 1.25511 c 0.38777,2.15978 2.27488,3.79906 4.54615,3.79906 2.27127,0 4.15861,-1.63928 4.54626,-3.79906 h 1.255 c 1.13429,0 2.05356,-0.9195 2.05356,-2.05356 0,-0.81464 -0.47543,-1.51621 -1.16306,-1.84822 0.68752,-0.33191 1.16306,-1.03348 1.16306,-1.848 0,-0.9204 -0.60569,-1.69941 -1.44,-1.96017 0.90197,-0.19579 1.58623,-0.98368 1.61568,-1.94308 0.11835,-3.88729 2.07728,-6.76201 3.9736,-9.54479 2.27274,-3.33453 4.62247,-6.78258 4.62247,-12.85887 -1.2e-4,-8.71026 -7.45853,-15.79642 -16.62657,-15.79642 z m 8.60832,26.3449 c -1.74414,2.55934 -3.85672,5.65964 -4.49737,9.73845 l -2.11639,-5.6e-4 3.02308,-17.21102 c 0.002,-0.009 0.003,-0.0187 0.005,-0.028 0.16073,-1.05483 -0.14566,-2.12381 -0.8406,-2.93272 -0.67246,-0.78272 -1.65322,-1.24994 -2.62352,-1.24994 -0.54534,0 -1.08,0.14814 -1.5597,0.42283 -0.47981,-0.27469 -1.01425,-0.42283 -1.5597,-0.42283 -0.96199,0 -1.90701,0.45677 -2.59306,1.2532 -0.70899,0.82318 -1.02662,1.8897 -0.8714,2.9262 0.002,0.0104 0.003,0.0208 0.005,0.0311 l 3.02308,17.2099 -2.10336,-6.7e-4 c -0.64121,-4.08128 -2.75816,-7.18327 -4.50602,-9.74419 -2.09953,-3.07759 -3.91269,-5.73539 -3.91269,-10.54038 0,-6.44551 5.61615,-11.68918 12.51944,-11.68918 6.90317,0 12.51943,5.24367 12.51943,11.68918 1.1e-4,4.80982 -1.81158,7.46796 -3.911,10.54859 z m -8.60978,6.61691 -2.54788,-14.50489 c -0.0604,-0.44059 0.18467,-0.78081 0.29358,-0.90714 0.2004,-0.23255 0.47295,-0.38282 0.6946,-0.38282 0.27784,0 0.49105,0.20804 0.59344,0.3319 0.23805,0.28841 0.59232,0.45531 0.96626,0.45531 0.37382,0 0.72821,-0.1669 0.96626,-0.45531 0.1025,-0.12397 0.31572,-0.3319 0.59355,-0.3319 0.24603,0 0.52298,0.14454 0.7227,0.37697 0.12734,0.14825 0.32999,0.46251 0.26582,0.91074 z"
     id="path2"
     style="fill:#ffffff;fill-opacity:1;stroke-width:0.112395"
     inkscape:export-filename="C:\Users\rodri\OneDrive\Documentos\Programming\Multiplication Table\Css\path2.png"
     inkscape:export-xdpi="96"
     inkscape:export-ydpi="96" /></g>
</g>
<g
   id="g6">
</g>
<g
   id="g8">
</g>
<g
   id="g10">
</g>
<g
   id="g12">
</g>
<g
   id="g14">
</g>
<g
   id="g16">
</g>
<g
   id="g18">
</g>
<g
   id="g20">
</g>
<g
   id="g22">
</g>
<g
   id="g24">
</g>
<g
   id="g26">
</g>
<g
   id="g28">
</g>
<g
   id="g30">
</g>
<g
   id="g32">
</g>
<g
   id="g34">
</g>
</svg>
